<?xml version="1.0" encoding="UTF-8"?>
<svg xmlns="http://www.w3.org/2000/svg" xmlns:xlink="http://www.w3.org/1999/xlink" viewBox="0 0 50 50" width="50px" height="50px">
<g id="surface128542132">
<path style=" stroke:none;fill-rule:nonzero;fill:rgb(92.54902%,9.411765%,22.352941%);fill-opacity:1;" d="M 25 6 C 13.421875 6 4 13.824219 4 23.4375 C 4 29.5625 7.945312 35.308594 14.304688 38.460938 C 14.003906 39.40625 13.105469 41.078125 12.175781 42.433594 C 11.933594 42.785156 11.941406 43.25 12.195312 43.589844 C 12.386719 43.855469 12.6875 44 13 44 C 13.097656 44 13.195312 43.984375 13.292969 43.953125 C 15.722656 43.203125 18.335938 41.75 19.78125 40.328125 C 20.691406 40.523438 21.617188 40.652344 22.550781 40.742188 C 24.941406 42.753906 28.246094 43.988281 31.84375 43.988281 C 33.011719 43.988281 34.1875 43.851562 35.335938 43.585938 C 36.382812 44.316406 37.523438 44.589844 38.574219 44.945312 C 38.972656 45.085938 39.417969 44.953125 39.679688 44.621094 C 39.945312 44.289062 39.96875 43.824219 39.742188 43.464844 C 39.382812 42.898438 39.167969 42.65625 38.972656 42.199219 C 42.648438 40.191406 44.949219 36.757812 44.949219 32.992188 C 44.949219 31.941406 44.761719 30.933594 44.4375 29.976562 C 45.433594 27.953125 46 25.753906 46 23.4375 C 46 13.824219 36.578125 6 25 6 Z M 31.84375 24 C 38.070312 24 42.949219 28.140625 42.949219 32.992188 C 42.949219 35.96875 41.144531 38.769531 37.960938 40.480469 C 37.957031 40.484375 37.957031 40.484375 37.957031 40.484375 C 37.324219 40.824219 37.074219 41.5 37.074219 42.1875 C 36.894531 42.101562 36.59375 42.039062 36.449219 41.9375 C 36.445312 41.9375 36.445312 41.9375 36.445312 41.9375 C 36.128906 41.710938 35.738281 41.585938 35.347656 41.585938 C 35.199219 41.585938 35.050781 41.601562 34.910156 41.636719 C 33.902344 41.871094 32.867188 41.992188 31.84375 41.992188 C 25.613281 41.992188 20.738281 37.847656 20.738281 32.996094 C 20.738281 28.140625 25.613281 24 31.84375 24 Z M 26.703125 31.054688 C 25.988281 31.042969 25.320312 31.414062 24.957031 32.03125 C 24.597656 32.648438 24.597656 33.414062 24.957031 34.03125 C 25.320312 34.648438 25.988281 35.023438 26.703125 35.007812 C 27.417969 35.023438 28.085938 34.648438 28.449219 34.03125 C 28.808594 33.414062 28.808594 32.648438 28.449219 32.03125 C 28.085938 31.414062 27.417969 31.042969 26.703125 31.054688 Z M 32.238281 31.054688 C 31.519531 31.042969 30.851562 31.414062 30.492188 32.03125 C 30.128906 32.648438 30.128906 33.414062 30.492188 34.03125 C 30.851562 34.648438 31.519531 35.023438 32.238281 35.007812 C 32.953125 35.023438 33.621094 34.648438 33.980469 34.03125 C 34.34375 33.414062 34.34375 32.648438 33.980469 32.03125 C 33.621094 31.414062 32.953125 31.042969 32.238281 31.054688 Z M 37.769531 31.054688 C 37.054688 31.042969 36.386719 31.414062 36.023438 32.03125 C 35.664062 32.648438 35.664062 33.414062 36.023438 34.03125 C 36.386719 34.648438 37.054688 35.023438 37.769531 35.007812 C 38.484375 35.023438 39.152344 34.648438 39.515625 34.03125 C 39.875 33.414062 39.875 32.648438 39.515625 32.03125 C 39.152344 31.414062 38.484375 31.042969 37.769531 31.054688 Z M 37.769531 31.054688 "/>
</g>
</svg>
